<svg width="489" height="94" viewBox="0 0 489 94" fill="none" xmlns="http://www.w3.org/2000/svg">
<path d="M28.9658 20.54C21.2438 20.54 15.3038 23.708 11.5418 29.252V0.937997H0.849791V74H11.5418V66.575C15.3038 72.119 21.2438 74.99 28.9658 74.99C43.2218 74.99 54.4088 65.387 54.4088 47.765C54.4088 30.143 43.2218 20.54 28.9658 20.54ZM28.2728 64.298C19.5608 64.298 11.5418 60.734 11.5418 47.765C11.5418 34.697 19.5608 31.133 28.2728 31.133C37.5788 31.133 43.9148 37.865 43.9148 47.765C43.9148 57.665 37.5788 64.298 28.2728 64.298ZM99.4375 20.738V49.646C99.4375 59.546 92.4086 63.407 82.7065 63.407C74.5885 63.407 71.1235 58.556 71.1235 49.646V20.738H60.5305V49.646C60.5305 65.783 68.7475 73.901 82.7065 73.901C91.3195 73.901 97.0615 70.04 99.4375 61.13V73.901H110.031V20.738H99.4375ZM123.826 12.224C126.895 12.224 129.667 9.749 129.667 6.58099C129.667 3.512 126.895 0.937997 123.826 0.937997C120.757 0.937997 118.084 3.512 118.084 6.58099C118.084 9.749 120.757 12.224 123.826 12.224ZM118.183 74H129.568V20.738H118.183V74ZM137.636 74H148.328V0.937997H137.636V74ZM197.258 0.937997V29.252C193.496 23.708 187.556 20.54 179.735 20.54C165.578 20.54 154.292 30.143 154.292 47.765C154.292 65.387 165.578 74.99 179.735 74.99C187.556 74.99 193.496 72.119 197.258 66.575V74H207.851V0.937997H197.258ZM180.527 64.298C171.122 64.298 164.885 57.665 164.885 47.765C164.885 37.865 171.122 31.133 180.527 31.133C189.14 31.133 197.258 34.697 197.258 47.765C197.258 60.734 189.14 64.298 180.527 64.298ZM213.777 53.903C213.777 66.674 222.192 74.99 239.715 74.99C253.476 74.99 263.772 70.337 263.772 59.051C263.772 49.151 256.446 45.686 241.794 43.211L235.161 42.023C228.627 40.934 225.756 38.954 225.756 35.291C225.756 31.727 228.924 30.341 237.24 30.341C246.546 30.341 250.506 34.004 250.506 40.34H261.198C261.198 28.559 253.08 19.748 237.24 19.748C222.39 19.748 215.064 25.49 215.064 35.291C215.064 44.003 221.796 48.557 235.161 51.131L241.992 52.418C249.615 54.002 252.981 55.586 252.981 59.051C252.981 62.714 249.219 64.496 239.715 64.496C229.122 64.496 224.469 60.338 224.469 53.903H213.777ZM297.801 19.748C289.98 19.748 284.04 22.718 280.278 28.361V20.738H269.685V93.8H280.278V65.288C284.04 71.03 289.98 74.198 297.801 74.198C312.057 74.198 323.244 64.595 323.244 46.973C323.244 29.351 312.057 19.748 297.801 19.748ZM297.009 63.605C288.396 63.605 280.278 59.942 280.278 46.973C280.278 33.905 288.396 30.44 297.009 30.44C306.414 30.44 312.651 37.073 312.651 46.973C312.651 56.873 306.414 63.605 297.009 63.605ZM354.04 20.738C341.368 20.738 330.775 26.381 330.775 39.746H341.368C341.368 33.41 346.813 31.43 354.04 31.43C361.762 31.43 366.217 34.004 366.514 41.231H348.298C338.398 41.231 328.3 45.488 328.3 57.665C328.3 70.04 338.893 74.99 348.298 74.99C356.515 74.99 363.94 72.218 366.514 60.635V74H377.206V42.023C377.206 26.381 366.415 20.738 354.04 20.738ZM348.298 64.298C342.358 64.298 338.992 62.12 338.992 57.368C338.992 52.715 342.358 50.438 348.298 50.438H366.514C366.514 61.823 357.802 64.298 348.298 64.298ZM408.884 74.99C423.734 74.99 431.852 66.971 434.129 54.695H423.041C420.962 60.734 416.111 64.298 408.884 64.298C399.281 64.298 393.836 57.665 393.836 47.369C393.836 37.073 399.281 30.44 408.884 30.44C416.21 30.44 421.061 34.004 423.041 40.241H434.129C431.951 27.767 423.734 19.748 408.884 19.748C392.252 19.748 383.144 30.935 383.144 47.369C383.144 63.803 392.252 74.99 408.884 74.99ZM462.859 64.298C453.949 64.298 449.098 60.437 448.009 51.626H488.104C488.104 29.747 477.412 19.748 462.859 19.748C446.227 19.748 437.119 31.925 437.119 47.369C437.119 62.813 446.227 74.99 462.859 74.99C476.917 74.99 485.926 65.981 487.312 56.18H476.62C475.333 61.526 471.571 64.298 462.859 64.298ZM462.859 30.44C470.383 30.44 476.719 32.717 477.61 43.409H448.009C448.999 34.4 453.751 30.44 462.859 30.44Z" fill="black"/>
</svg>
